<svg version="1.1" viewBox="0 0 424.033 512" xmlns="http://www.w3.org/2000/svg"><path d="m300.683 0.0316123c-128.559-1.97336-253.043 88.6516-287.923 212.923-21.8669 69.7449-17.3896 151.081 27.2212 211.238 51.9492 72.8678 152.281 106.284 237.307 77.5372 85.746-27.3052 149.148-113.314 146.675-203.781-0.59816-67.4169-35.1337-134.031-91.049-172.043-17.1092-31.876-19.7413-70.4197-9.01662-104.778 3.35122-14.2085-10.1006-21.3449-23.2135-21.0966zm-88.785 75.9869a19.1136 19.1136 0 0 1 19.1136 19.1136 19.1136 19.1136 0 0 1-19.1136 19.1136 19.1136 19.1136 0 0 1-19.1136-19.1136 19.1136 19.1136 0 0 1 19.1136-19.1136zm-105.804 222.679a41.6003 41.6003 0 0 1 41.6003 41.6003 41.6003 41.6003 0 0 1-41.6003 41.6003 41.6003 41.6003 0 0 1-41.6003-41.6003 41.6003 41.6003 0 0 1 41.6003-41.6003zm211.607 0a41.6003 41.6003 0 0 1 41.6003 41.6003 41.6003 41.6003 0 0 1-41.6003 41.6003 41.6003 41.6003 0 0 1-41.6003-41.6003 41.6003 41.6003 0 0 1 41.6003-41.6003zm-105.804 38.2273a41.6003 41.6003 0 0 1 41.6003 41.6003 41.6003 41.6003 0 0 1-41.6003 41.6003 41.6003 41.6003 0 0 1-41.6003-41.6003 41.6003 41.6003 0 0 1 41.6003-41.6003z" stroke-width=".937049"/></svg>
